<svg width="32" height="32" viewBox="0 0 32 32" fill="none" xmlns="http://www.w3.org/2000/svg">
<path d="M28.4045 1.02127H3.59551C1.60976 1.02127 0 2.54541 0 4.42553V27.9149C0 29.795 1.60976 31.3191 3.59551 31.3191H28.4045C30.3902 31.3191 32 29.795 32 27.9149V4.42553C32 2.54541 30.3902 1.02127 28.4045 1.02127Z" fill="#1E2761"/>
<path d="M0 4.42553C0 2.54541 1.60976 1.02127 3.59551 1.02127H13.3034C13.3034 7.9777 7.34724 13.617 0 13.617V4.42553Z" fill="#434C88"/>
<path d="M19.4832 21.2021H12.0955L10.6911 25.1915H6.21069L13.8231 5.8298H17.7276L25.3821 25.1915H20.9017L19.4832 21.2021ZM13.2332 17.9708H18.3455L15.7753 10.7234L13.2332 17.9708Z" fill="white"/>
</svg>
