<svg width="102" height="32" viewBox="0 0 102 32" fill="none" xmlns="http://www.w3.org/2000/svg">
<path d="M25.925 1.26318H4.25C1.90279 1.26318 0 3.1483 0 5.47371V26.9474C0 29.2728 1.90279 31.1579 4.25 31.1579H25.925C28.2722 31.1579 30.175 29.2728 30.175 26.9474V5.47371C30.175 3.1483 28.2722 1.26318 25.925 1.26318Z" fill="white"/>
<path d="M0 5.47371C0 3.1483 1.90279 1.26318 4.25 1.26318H12.325C12.325 8.00689 6.80693 13.4737 0 13.4737V5.47371Z" fill="#B4BDFF"/>
<path d="M18.3662 21.2541H11.2712L9.9223 25.2631H5.61938L12.9303 5.80591H16.6802L24.0315 25.2631H19.7286L18.3662 21.2541ZM12.3638 18.0068H17.2737L14.8052 10.7237L12.3638 18.0068Z" fill="#1E2761"/>
<path d="M35.3286 25.2632V5.80598H41.3716C43.098 5.80598 44.6404 6.19352 45.9982 6.96859C47.365 7.73478 48.4305 8.83057 49.1951 10.256C49.9592 11.6726 50.3417 13.2851 50.3417 15.0936V15.9889C50.3417 17.7975 49.9639 19.4056 49.2087 20.8132C48.462 22.2208 47.4054 23.3121 46.0386 24.0872C44.6718 24.8623 43.1295 25.2543 41.412 25.2632H35.3286ZM39.3753 9.05331V22.0426H41.3311C42.9136 22.0426 44.1231 21.5303 44.9595 20.5058C45.7959 19.4813 46.2231 18.0158 46.2409 16.1092V15.0802C46.2409 13.1024 45.8274 11.6057 44.9999 10.5901C44.1729 9.56556 42.9633 9.05331 41.3716 9.05331H39.3753ZM69.4281 15.9756C69.4281 17.891 69.0864 19.5704 68.403 21.0136C67.7196 22.4569 66.7395 23.5705 65.4624 24.3545C64.1946 25.1385 62.7377 25.5305 61.0921 25.5305C59.4644 25.5305 58.0121 25.143 56.7354 24.3678C55.4583 23.5928 54.4693 22.488 53.7677 21.0537C53.0664 19.6104 52.7111 17.9534 52.7022 16.0825V15.1203C52.7022 13.2049 53.0481 11.5211 53.7409 10.0689C54.4421 8.60783 55.4269 7.48977 56.6946 6.7147C57.9718 5.9307 59.4287 5.5387 61.0653 5.5387C62.702 5.5387 64.1542 5.9307 65.422 6.7147C66.6991 7.48977 67.6839 8.60783 68.3762 10.0689C69.0774 11.5211 69.4281 13.2004 69.4281 15.107V15.9756ZM65.3277 15.0936C65.3277 13.0534 64.9588 11.5032 64.2214 10.4431C63.484 9.38291 62.4321 8.85284 61.0653 8.85284C59.7075 8.85284 58.6598 9.37849 57.9225 10.4297C57.1851 11.4721 56.8115 13.0044 56.8026 15.0268V15.9756C56.8026 17.9623 57.1715 19.5035 57.9089 20.5993C58.6462 21.6952 59.7075 22.243 61.0921 22.243C62.45 22.243 63.4934 21.7174 64.2214 20.6662C64.9498 19.606 65.3187 18.0647 65.3277 16.0424V15.0936ZM84.1849 17.3119H76.4155V25.2632H72.3686V5.80598H85.156V9.05331H76.4155V14.078H84.1849V17.3119ZM99.3192 17.3119H91.5497V25.2632H87.5033V5.80598H100.291V9.05331H91.5497V14.078H99.3192V17.3119Z" fill="white"/>
</svg>
