<svg width="532" height="253" viewBox="0 0 532 253" fill="none" xmlns="http://www.w3.org/2000/svg">
<rect x="16" y="84" width="500" height="60" rx="30" fill="#1E2761"/>
<rect x="41" y="104" width="60" height="20" rx="10" fill="#434C88"/>
<rect x="308" y="109" width="50" height="10" rx="5" fill="#434C88"/>
<rect x="368" y="109" width="50" height="10" rx="5" fill="#434C88"/>
<rect x="428" y="109" width="50" height="10" rx="5" fill="#434C88"/>
<path d="M134.5 93L119.345 66.75H149.655L134.5 93Z" fill="#CE4A00"/>
<path d="M265.5 160L280.655 186.25H250.345L265.5 160Z" fill="#434C88"/>
<path d="M3 134V135C3 148.807 14.1929 160 28 160H266H504C517.807 160 529 148.807 529 135V134" stroke="#434C88" stroke-width="5" stroke-linecap="round"/>
<g filter="url(#filter0_d)">
<rect x="74" y="35" width="120" height="40" rx="10" fill="#F45800"/>
</g>
<path d="M132.631 60H130.434V55.4297H126.149V60H123.952V49.3359H126.149V53.6572H130.434V49.3359H132.631V60ZM142.365 51.1157H139.099V60H136.901V51.1157H133.679V49.3359H142.365V51.1157ZM146.496 49.3359L149.235 57.0703L151.96 49.3359H154.846V60H152.641V57.085L152.861 52.0532L149.982 60H148.474L145.603 52.0605L145.822 57.085V60H143.625V49.3359H146.496ZM158.962 58.2349H163.627V60H156.765V49.3359H158.962V58.2349Z" fill="white"/>
<g filter="url(#filter1_d)">
<rect x="206" y="178" width="120" height="40" rx="10" fill="#1E2761"/>
</g>
<path d="M271.324 199.448C271.241 200.595 270.816 201.499 270.049 202.158C269.288 202.817 268.282 203.146 267.032 203.146C265.665 203.146 264.588 202.688 263.802 201.77C263.021 200.847 262.63 199.582 262.63 197.976V197.324C262.63 196.298 262.811 195.395 263.172 194.614C263.533 193.833 264.048 193.234 264.717 192.819C265.391 192.399 266.172 192.189 267.061 192.189C268.292 192.189 269.283 192.519 270.035 193.178C270.787 193.837 271.221 194.763 271.338 195.954H269.141C269.087 195.266 268.895 194.768 268.562 194.46C268.235 194.147 267.735 193.991 267.061 193.991C266.329 193.991 265.779 194.255 265.413 194.782C265.052 195.305 264.866 196.118 264.856 197.221V198.027C264.856 199.179 265.03 200.021 265.376 200.554C265.728 201.086 266.28 201.352 267.032 201.352C267.71 201.352 268.216 201.198 268.548 200.891C268.885 200.578 269.078 200.097 269.126 199.448H271.324ZM278.296 200.202C278.296 199.787 278.15 199.47 277.857 199.25C277.564 199.025 277.037 198.791 276.275 198.547C275.513 198.298 274.91 198.054 274.466 197.814C273.255 197.16 272.649 196.279 272.649 195.17C272.649 194.594 272.811 194.082 273.133 193.632C273.46 193.178 273.926 192.824 274.532 192.57C275.142 192.316 275.826 192.189 276.583 192.189C277.344 192.189 278.023 192.329 278.619 192.607C279.214 192.88 279.676 193.269 280.003 193.771C280.335 194.274 280.501 194.846 280.501 195.485H278.304C278.304 194.997 278.15 194.619 277.842 194.35C277.535 194.077 277.103 193.94 276.546 193.94C276.009 193.94 275.591 194.055 275.293 194.284C274.996 194.509 274.847 194.807 274.847 195.178C274.847 195.524 275.02 195.815 275.367 196.049C275.718 196.284 276.233 196.503 276.912 196.708C278.162 197.084 279.073 197.551 279.644 198.107C280.215 198.664 280.501 199.357 280.501 200.188C280.501 201.11 280.152 201.835 279.454 202.363C278.755 202.885 277.815 203.146 276.634 203.146C275.813 203.146 275.066 202.998 274.393 202.7C273.719 202.397 273.204 201.984 272.847 201.462C272.496 200.939 272.32 200.334 272.32 199.646H274.524C274.524 200.822 275.228 201.411 276.634 201.411C277.156 201.411 277.564 201.306 277.857 201.096C278.15 200.881 278.296 200.583 278.296 200.202ZM287.525 200.202C287.525 199.787 287.378 199.47 287.085 199.25C286.792 199.025 286.265 198.791 285.503 198.547C284.742 198.298 284.139 198.054 283.694 197.814C282.483 197.16 281.878 196.279 281.878 195.17C281.878 194.594 282.039 194.082 282.361 193.632C282.688 193.178 283.155 192.824 283.76 192.57C284.371 192.316 285.054 192.189 285.811 192.189C286.573 192.189 287.251 192.329 287.847 192.607C288.443 192.88 288.904 193.269 289.231 193.771C289.563 194.274 289.729 194.846 289.729 195.485H287.532C287.532 194.997 287.378 194.619 287.071 194.35C286.763 194.077 286.331 193.94 285.774 193.94C285.237 193.94 284.82 194.055 284.522 194.284C284.224 194.509 284.075 194.807 284.075 195.178C284.075 195.524 284.249 195.815 284.595 196.049C284.947 196.284 285.462 196.503 286.141 196.708C287.391 197.084 288.301 197.551 288.873 198.107C289.444 198.664 289.729 199.357 289.729 200.188C289.729 201.11 289.38 201.835 288.682 202.363C287.984 202.885 287.044 203.146 285.862 203.146C285.042 203.146 284.295 202.998 283.621 202.7C282.947 202.397 282.432 201.984 282.076 201.462C281.724 200.939 281.548 200.334 281.548 199.646H283.753C283.753 200.822 284.456 201.411 285.862 201.411C286.385 201.411 286.792 201.306 287.085 201.096C287.378 200.881 287.525 200.583 287.525 200.202Z" fill="white"/>
<path d="M111.6 52.3H106.1C105.493 52.3 105 52.7934 105 53.4V58.9C105 59.5067 105.493 60 106.1 60H111.6C112.207 60 112.7 59.5067 112.7 58.9V53.4C112.7 52.7934 112.207 52.3 111.6 52.3Z" fill="white"/>
<path d="M114.9 49H109.4C109.108 49 108.829 49.1159 108.622 49.3222C108.416 49.5285 108.3 49.8083 108.3 50.1V51.2H112.7C112.992 51.2 113.272 51.3159 113.478 51.5222C113.684 51.7285 113.8 52.0083 113.8 52.3V56.7H114.9C115.192 56.7 115.472 56.5841 115.678 56.3778C115.884 56.1715 116 55.8917 116 55.6V50.1C116 49.8083 115.884 49.5285 115.678 49.3222C115.472 49.1159 115.192 49 114.9 49Z" fill="white"/>
<path d="M248.5 205C252.09 205 255 202.09 255 198.5C255 194.91 252.09 192 248.5 192C244.91 192 242 194.91 242 198.5C242 202.09 244.91 205 248.5 205Z" stroke="white" stroke-width="2"/>
<path d="M243.95 203.05L253.05 193.95" stroke="white" stroke-width="2"/>
<defs>
<filter id="filter0_d" x="44" y="0" width="180" height="100" filterUnits="userSpaceOnUse" color-interpolation-filters="sRGB">
<feFlood flood-opacity="0" result="BackgroundImageFix"/>
<feColorMatrix in="SourceAlpha" type="matrix" values="0 0 0 0 0 0 0 0 0 0 0 0 0 0 0 0 0 0 127 0" result="hardAlpha"/>
<feOffset dy="-5"/>
<feGaussianBlur stdDeviation="15"/>
<feComposite in2="hardAlpha" operator="out"/>
<feColorMatrix type="matrix" values="0 0 0 0 0 0 0 0 0 0 0 0 0 0 0 0 0 0 0.25 0"/>
<feBlend mode="normal" in2="BackgroundImageFix" result="effect1_dropShadow"/>
<feBlend mode="normal" in="SourceGraphic" in2="effect1_dropShadow" result="shape"/>
</filter>
<filter id="filter1_d" x="176" y="153" width="180" height="100" filterUnits="userSpaceOnUse" color-interpolation-filters="sRGB">
<feFlood flood-opacity="0" result="BackgroundImageFix"/>
<feColorMatrix in="SourceAlpha" type="matrix" values="0 0 0 0 0 0 0 0 0 0 0 0 0 0 0 0 0 0 127 0" result="hardAlpha"/>
<feOffset dy="5"/>
<feGaussianBlur stdDeviation="15"/>
<feComposite in2="hardAlpha" operator="out"/>
<feColorMatrix type="matrix" values="0 0 0 0 0 0 0 0 0 0 0 0 0 0 0 0 0 0 0.25 0"/>
<feBlend mode="normal" in2="BackgroundImageFix" result="effect1_dropShadow"/>
<feBlend mode="normal" in="SourceGraphic" in2="effect1_dropShadow" result="shape"/>
</filter>
</defs>
</svg>
