<svg width="240" height="76" viewBox="0 0 240 76" fill="none" xmlns="http://www.w3.org/2000/svg">
<rect y="3" width="71" height="71" rx="10" fill="#1E2761"/>
<path d="M0 13C0 7.47715 4.47715 3 10 3H29C29 19.0163 16.0163 32 0 32V13Z" fill="#434C88"/>
<path d="M43.2148 50.4785H26.5205L23.3467 60H13.2222L30.4243 13.7891H39.2476L56.5449 60H46.4204L43.2148 50.4785ZM29.0913 42.7661H40.644L34.8359 25.4688L29.0913 42.7661Z" fill="white"/>
<path d="M83.126 60V13.7891H97.3447C101.407 13.7891 105.036 14.7095 108.231 16.5503C111.447 18.37 113.954 20.9725 115.753 24.3579C117.551 27.7222 118.451 31.5519 118.451 35.8472V37.9736C118.451 42.2689 117.562 46.0881 115.785 49.4312C114.028 52.7743 111.542 55.3662 108.326 57.207C105.11 59.0479 101.481 59.9788 97.4399 60H83.126ZM92.6475 21.5015V52.3511H97.2495C100.973 52.3511 103.819 51.1344 105.787 48.7012C107.755 46.2679 108.76 42.7873 108.802 38.2593V35.8154C108.802 31.1182 107.829 27.5635 105.882 25.1514C103.936 22.7181 101.09 21.5015 97.3447 21.5015H92.6475ZM163.36 37.9419C163.36 42.491 162.556 46.4795 160.948 49.9072C159.34 53.335 157.034 55.9798 154.029 57.8418C151.046 59.7038 147.618 60.6348 143.746 60.6348C139.916 60.6348 136.499 59.7144 133.495 57.8735C130.49 56.0327 128.163 53.409 126.512 50.0024C124.862 46.5747 124.026 42.6392 124.005 38.1958V35.9106C124.005 31.3615 124.819 27.3625 126.449 23.9136C128.099 20.4435 130.416 17.7881 133.399 15.9473C136.404 14.0853 139.832 13.1543 143.683 13.1543C147.534 13.1543 150.951 14.0853 153.934 15.9473C156.939 17.7881 159.256 20.4435 160.885 23.9136C162.535 27.3625 163.36 31.3509 163.36 35.8789V37.9419ZM153.712 35.8472C153.712 31.0018 152.844 27.3201 151.109 24.8022C149.374 22.2843 146.899 21.0254 143.683 21.0254C140.488 21.0254 138.023 22.2738 136.288 24.7705C134.553 27.2461 133.674 30.8854 133.653 35.6885V37.9419C133.653 42.6603 134.521 46.3208 136.256 48.9233C137.991 51.5259 140.488 52.8271 143.746 52.8271C146.941 52.8271 149.396 51.5788 151.109 49.082C152.823 46.5641 153.691 42.9036 153.712 38.1006V35.8472ZM198.082 41.1157H179.801V60H170.279V13.7891H200.367V21.5015H179.801V33.4351H198.082V41.1157ZM233.692 41.1157H215.411V60H205.89V13.7891H235.978V21.5015H215.411V33.4351H233.692V41.1157Z" fill="#434C88"/>
</svg>
