<svg width="287" height="307" viewBox="0 0 287 307" fill="none" xmlns="http://www.w3.org/2000/svg">
<path d="M24.995 210.367C38.2699 243.035 76.5478 267.022 126.577 247.306C176.606 227.59 193.529 251.046 201.355 272.701C209.182 294.357 261.589 305.531 281.859 227.682C302.129 149.833 242.126 96.8722 207.427 92.8782C172.727 88.8842 163.377 103.29 146.016 124.23C128.655 145.17 101.32 150.041 69.4602 144.269C37.6004 138.498 11.4892 177.168 24.995 210.367Z" fill="#434C88"/>
<path d="M104.506 222.464C104.852 239.341 96.4021 292.094 96.4021 292.094C96.4021 292.094 104.506 308.624 135.096 306.87C165.686 305.115 171.042 292.025 171.042 292.025C171.042 292.025 168.225 261.781 167.879 251.577C167.533 241.372 165.916 239.064 169.356 233.107C172.796 227.151 181.5 179.407 181.5 179.407L198.307 158.814C198.307 158.814 200.316 150.572 193.875 149.856C187.433 149.141 175.913 158.814 168.687 166.548C168.687 166.548 161.761 166.548 171.734 157.313C184.871 145.193 195.952 144.87 196.322 131.479C196.668 118.966 180.6 127.739 172.819 132.333C169.356 134.388 166.84 131.225 172.819 126.539C178.799 121.852 175.428 124.484 181.892 117.119C188.357 109.754 188.819 102.182 183.855 98.996C178.891 95.8101 170.788 106.222 163.631 112.848C158.021 118.112 163.839 115.457 170.788 103.613C177.737 91.7699 180.346 88.9995 178.429 80.8267C176.513 72.654 171.157 68.7985 162.476 83.4356C153.796 98.0726 121.105 138.844 108.43 150.387C95.7556 161.931 104.506 222.464 104.506 222.464Z" fill="#EAA88E"/>
<path d="M157.376 57.1529L88.8132 76.7742C85.1602 77.8196 83.0463 81.6284 84.0917 85.2814L122.985 221.186C124.03 224.839 127.839 226.953 131.492 225.908L200.055 206.286C203.708 205.241 205.822 201.432 204.776 197.779L165.883 61.8744C164.838 58.2214 161.029 56.1075 157.376 57.1529Z" fill="#1E2761"/>
<path d="M155.712 53.2844L88.1138 72.7004C86.931 73.0295 85.8257 73.5911 84.8626 74.3524C83.8994 75.1138 83.0978 76.0595 82.5044 77.1344C81.9111 78.2092 81.5381 79.3916 81.4072 80.6123C81.2762 81.833 81.39 83.0676 81.7419 84.2438L121.474 223.065C121.803 224.247 122.365 225.353 123.126 226.316C123.888 227.279 124.833 228.081 125.908 228.674C126.983 229.267 128.165 229.64 129.386 229.771C130.607 229.902 131.841 229.789 133.018 229.437L200.616 210.09C201.799 209.761 202.904 209.199 203.867 208.438C204.83 207.677 205.632 206.731 206.225 205.656C206.819 204.581 207.192 203.399 207.322 202.178C207.453 200.957 207.34 199.723 206.988 198.547L167.209 59.6794C166.882 58.4997 166.324 57.3967 165.567 56.4347C164.81 55.4727 163.869 54.6709 162.799 54.0758C161.729 53.4807 160.552 53.1043 159.335 52.9684C158.118 52.8326 156.887 52.94 155.712 53.2844ZM202.278 196.838C202.584 197.908 202.676 199.028 202.547 200.134C202.419 201.24 202.074 202.309 201.531 203.281C200.988 204.253 200.259 205.108 199.385 205.797C198.511 206.486 197.509 206.996 196.437 207.296L135.003 224.889C133.936 225.195 132.819 225.289 131.715 225.164C130.612 225.038 129.544 224.697 128.573 224.159C127.602 223.621 126.746 222.896 126.055 222.027C125.364 221.158 124.85 220.161 124.545 219.094L86.7517 86.968C86.4449 85.9008 86.3514 84.7836 86.4766 83.6803C86.6018 82.5769 86.9432 81.5091 87.4814 80.5378C88.0196 79.5665 88.744 78.7108 89.6131 78.0196C90.4822 77.3285 91.479 76.8154 92.5465 76.5097L100.142 74.3165L104.252 77.4332C105.261 78.2087 106.44 78.736 107.691 78.9726C108.942 79.2092 110.231 79.1485 111.455 78.7953L140.359 70.5302C141.587 70.1804 142.716 69.5469 143.655 68.6807C144.593 67.8145 145.315 66.7398 145.762 65.5435L147.585 60.7414L154.004 58.9176C156.159 58.3042 158.469 58.5696 160.429 59.6556C162.389 60.7416 163.839 62.5598 164.462 64.7124L202.278 196.838Z" fill="#0D1019"/>
<path d="M108.546 120.836C110.548 120.836 112.171 119.213 112.171 117.212C112.171 115.21 110.548 113.587 108.546 113.587C106.544 113.587 104.922 115.21 104.922 117.212C104.922 119.213 106.544 120.836 108.546 120.836Z" fill="#E2EAF2"/>
<path d="M99.3109 88.9997C101.542 88.9997 103.351 87.1909 103.351 84.9595C103.351 82.7282 101.542 80.9193 99.3109 80.9193C97.0795 80.9193 95.2707 82.7282 95.2707 84.9595C95.2707 87.1909 97.0795 88.9997 99.3109 88.9997Z" fill="#FAFAFA"/>
<path d="M145.3 89.8539L118.128 97.7792C114.909 98.7181 113.06 102.089 113.999 105.308L114.006 105.33C114.944 108.55 118.315 110.398 121.535 109.459L148.707 101.534C151.926 100.595 153.775 97.2242 152.836 94.0049L152.829 93.9828C151.89 90.7635 148.519 88.915 145.3 89.8539Z" fill="#FAFAFA"/>
<path d="M119.05 109.501L119.835 114.003L125.815 107.561L119.05 109.501Z" fill="#FAFAFA"/>
<path d="M121.705 107.792C121.479 107.807 121.255 107.736 121.078 107.593C120.902 107.45 120.786 107.246 120.754 107.021C120.721 106.796 120.776 106.568 120.905 106.381C121.034 106.194 121.229 106.063 121.451 106.014L142.622 99.9657C142.737 99.9306 142.858 99.9189 142.978 99.9313C143.098 99.9438 143.214 99.9802 143.319 100.038C143.425 100.096 143.518 100.175 143.592 100.27C143.667 100.364 143.721 100.473 143.753 100.589C143.817 100.819 143.787 101.064 143.671 101.272C143.554 101.48 143.359 101.633 143.13 101.697L121.959 107.769L121.705 107.792Z" fill="#1E2761"/>
<path d="M125.838 181.231C127.84 181.231 129.463 179.609 129.463 177.607C129.463 175.605 127.84 173.982 125.838 173.982C123.836 173.982 122.213 175.605 122.213 177.607C122.213 179.609 123.836 181.231 125.838 181.231Z" fill="#FAFAFA"/>
<path d="M147.732 160.032L136.212 163.328C133.993 163.963 132.709 166.277 133.344 168.495C133.979 170.714 136.293 171.998 138.511 171.363L150.031 168.066C152.25 167.431 153.534 165.118 152.899 162.899C152.264 160.681 149.95 159.397 147.732 160.032Z" fill="#FAFAFA"/>
<path d="M136.342 169.873L137.104 174.375L143.107 167.933L136.342 169.873Z" fill="#FAFAFA"/>
<path d="M137.358 169.503C137.16 169.498 136.969 169.43 136.812 169.31C136.654 169.19 136.539 169.023 136.481 168.834C136.446 168.72 136.434 168.601 136.447 168.482C136.46 168.364 136.496 168.25 136.555 168.146C136.613 168.042 136.692 167.952 136.786 167.879C136.881 167.807 136.989 167.755 137.104 167.726L144.861 165.417C144.976 165.382 145.098 165.37 145.217 165.383C145.337 165.395 145.453 165.432 145.559 165.49C145.664 165.548 145.757 165.626 145.831 165.721C145.906 165.816 145.961 165.924 145.993 166.04C146.057 166.273 146.028 166.522 145.912 166.733C145.795 166.945 145.6 167.102 145.369 167.172L137.612 169.48L137.358 169.503Z" fill="#1E2761"/>
<path d="M162.846 195.06C161.737 195.057 160.66 194.692 159.777 194.022C158.894 193.351 158.253 192.411 157.952 191.344C157.768 190.702 157.715 190.031 157.794 189.369C157.873 188.707 158.084 188.068 158.414 187.488C159.092 186.353 160.185 185.525 161.461 185.179L173.005 181.901C174.053 181.602 175.169 181.648 176.189 182.033C177.208 182.417 178.077 183.119 178.668 184.035C179.258 184.951 179.537 186.033 179.465 187.12C179.394 188.208 178.974 189.243 178.268 190.074L179.169 192.267C179.229 192.425 179.245 192.596 179.217 192.762C179.188 192.929 179.116 193.085 179.007 193.214C178.897 193.345 178.751 193.441 178.587 193.49C178.423 193.54 178.248 193.54 178.084 193.491L173.628 192.29L164.278 194.968C163.807 195.06 163.325 195.091 162.846 195.06ZM174.39 183.517C174.077 183.518 173.766 183.565 173.466 183.656L161.923 186.934C161.512 187.048 161.129 187.243 160.795 187.509C160.462 187.775 160.186 188.106 159.984 188.481C159.771 188.856 159.635 189.269 159.583 189.697C159.532 190.125 159.566 190.559 159.683 190.974C159.921 191.816 160.48 192.531 161.241 192.963C162.002 193.395 162.902 193.51 163.747 193.283L173.351 190.443C173.517 190.397 173.693 190.397 173.859 190.443L176.745 191.228L176.329 190.189C176.264 190.016 176.251 189.827 176.292 189.647C176.333 189.466 176.426 189.302 176.56 189.173C177.05 188.734 177.396 188.155 177.551 187.515C177.706 186.875 177.663 186.203 177.428 185.587C177.193 184.972 176.777 184.442 176.234 184.069C175.692 183.695 175.049 183.494 174.39 183.494V183.517Z" fill="#FAFAFA"/>
<path d="M166.84 190.443C166.614 190.458 166.39 190.387 166.213 190.244C166.037 190.101 165.921 189.897 165.889 189.672C165.856 189.447 165.911 189.218 166.04 189.032C166.169 188.845 166.364 188.714 166.586 188.665L174.367 186.357C174.596 186.293 174.842 186.322 175.049 186.439C175.257 186.556 175.41 186.751 175.475 186.98C175.539 187.213 175.51 187.461 175.394 187.673C175.277 187.884 175.083 188.042 174.851 188.111L167.094 190.42L166.84 190.443Z" fill="#FAFAFA"/>
<path d="M132.279 142.446C130.524 142.578 128.784 142.037 127.413 140.932C126.042 139.828 125.143 138.243 124.899 136.499C124.655 134.756 125.084 132.985 126.099 131.546C127.114 130.108 128.639 129.11 130.363 128.755L157.559 120.975C158.189 120.789 158.842 120.696 159.498 120.698C160.956 120.663 162.388 121.089 163.59 121.916C164.791 122.742 165.701 123.927 166.19 125.301C166.678 126.675 166.721 128.168 166.311 129.568C165.902 130.967 165.061 132.202 163.908 133.095L164.716 135.012C164.776 135.17 164.793 135.341 164.764 135.507C164.736 135.673 164.663 135.829 164.554 135.958C164.441 136.085 164.295 136.178 164.132 136.227C163.969 136.276 163.796 136.279 163.631 136.235L159.175 135.035L134.218 142.169C133.589 142.354 132.936 142.448 132.279 142.446ZM159.498 122.522C159.016 122.525 158.535 122.587 158.067 122.706L130.871 130.417C129.555 130.798 128.444 131.686 127.782 132.884C127.12 134.083 126.96 135.496 127.339 136.812C127.641 137.89 128.288 138.838 129.18 139.514C130.072 140.189 131.16 140.554 132.279 140.553C132.762 140.549 133.243 140.487 133.711 140.368L158.921 133.142C159.08 133.095 159.248 133.095 159.406 133.142L162.315 133.927L161.969 133.049C161.879 132.857 161.863 132.638 161.922 132.435C161.982 132.231 162.113 132.056 162.292 131.941C163.187 131.321 163.863 130.434 164.224 129.407C164.586 128.379 164.613 127.264 164.304 126.221C163.994 125.177 163.363 124.257 162.5 123.593C161.637 122.929 160.587 122.554 159.498 122.522Z" fill="#FAFAFA"/>
<path d="M132.948 138.221C132.755 138.222 132.566 138.16 132.411 138.043C132.257 137.926 132.145 137.761 132.094 137.574C132.029 137.345 132.054 137.098 132.166 136.888C132.278 136.677 132.468 136.517 132.694 136.443L133.272 136.281C133.385 136.248 133.504 136.237 133.622 136.25C133.74 136.263 133.854 136.298 133.958 136.355C134.062 136.412 134.154 136.489 134.228 136.581C134.303 136.673 134.358 136.779 134.391 136.893C134.425 137.007 134.435 137.126 134.423 137.244C134.41 137.362 134.374 137.476 134.317 137.58C134.261 137.684 134.184 137.775 134.091 137.85C133.999 137.924 133.893 137.979 133.78 138.013L133.202 138.197L132.948 138.221Z" fill="#FAFAFA"/>
<path d="M137.843 136.812C137.616 136.828 137.392 136.757 137.216 136.614C137.039 136.471 136.923 136.266 136.891 136.041C136.859 135.816 136.913 135.588 137.043 135.401C137.172 135.214 137.367 135.083 137.589 135.035L138.166 134.873C138.399 134.808 138.647 134.838 138.859 134.954C139.07 135.071 139.228 135.265 139.297 135.496C139.361 135.726 139.332 135.972 139.215 136.179C139.098 136.387 138.903 136.54 138.674 136.605L138.097 136.789L137.843 136.812Z" fill="#FAFAFA"/>
<path d="M142.876 135.404C142.649 135.419 142.425 135.348 142.249 135.205C142.072 135.062 141.956 134.858 141.924 134.633C141.892 134.408 141.946 134.179 142.075 133.993C142.205 133.806 142.4 133.675 142.622 133.626L143.199 133.465C143.429 133.401 143.674 133.43 143.882 133.547C144.09 133.664 144.243 133.859 144.307 134.088C144.372 134.321 144.343 134.569 144.226 134.781C144.11 134.992 143.915 135.15 143.684 135.219L143.107 135.381L142.876 135.404Z" fill="#FAFAFA"/>
<path d="M147.955 133.949C147.758 133.952 147.566 133.891 147.408 133.774C147.249 133.657 147.133 133.492 147.078 133.303C147.013 133.07 147.042 132.822 147.159 132.61C147.275 132.399 147.47 132.241 147.701 132.172L148.278 132.01C148.508 131.946 148.754 131.976 148.961 132.093C149.169 132.21 149.322 132.404 149.386 132.634C149.451 132.866 149.422 133.115 149.305 133.326C149.189 133.538 148.994 133.695 148.763 133.765L148.186 133.926L147.955 133.949Z" fill="#FAFAFA"/>
<path d="M153.611 132.195C153.385 132.21 153.161 132.139 152.984 131.996C152.808 131.853 152.692 131.649 152.66 131.424C152.628 131.199 152.682 130.97 152.811 130.784C152.94 130.597 153.136 130.466 153.357 130.417L153.935 130.256C154.05 130.22 154.171 130.209 154.291 130.221C154.41 130.234 154.526 130.27 154.632 130.328C154.737 130.386 154.83 130.465 154.905 130.56C154.979 130.654 155.034 130.763 155.066 130.879C155.13 131.109 155.1 131.354 154.983 131.562C154.866 131.77 154.672 131.923 154.443 131.987L153.865 132.172L153.611 132.195Z" fill="#FAFAFA"/>
<path d="M150.264 71.7308C149.93 71.489 149.52 71.3744 149.109 71.4075C148.925 71.4075 148.855 71.5461 148.809 71.6846L148.671 71.8693C148.671 72.0078 148.094 71.8693 147.701 71.6846C147.309 71.4999 146.962 71.1074 147.032 70.9689C147.019 70.8925 147.019 70.8144 147.032 70.738C147.066 70.6784 147.084 70.6107 147.084 70.5418C147.084 70.4729 147.066 70.4052 147.032 70.3455C146.838 69.9767 146.519 69.6898 146.131 69.5375C146.04 69.4988 145.942 69.4788 145.843 69.4788C145.743 69.4788 145.645 69.4988 145.554 69.5375C145.506 69.5598 145.462 69.5918 145.426 69.6315C145.391 69.6712 145.363 69.7178 145.346 69.7684C145.258 70.0279 145.242 70.3065 145.298 70.5747C145.355 70.8428 145.483 71.0907 145.669 71.2921C146.074 71.7784 146.577 72.172 147.147 72.4464C147.68 72.7794 148.278 72.9921 148.902 73.0698C149.152 73.1314 149.413 73.1314 149.663 73.0698C149.939 72.9829 150.18 72.8137 150.356 72.585C150.38 72.5428 150.393 72.4951 150.393 72.4464C150.393 72.3978 150.38 72.35 150.356 72.3079C150.381 72.2105 150.385 72.109 150.369 72.0098C150.354 71.9106 150.318 71.8156 150.264 71.7308Z" fill="#FAFAFA"/>
<path d="M155.298 66.7723L152.789 67.49C152.201 67.6584 151.861 68.2719 152.029 68.8603L152.607 70.8801C152.775 71.4685 153.389 71.809 153.977 71.6406L156.485 70.9229C157.074 70.7545 157.414 70.141 157.246 69.5526L156.668 67.5328C156.5 66.9444 155.886 66.6039 155.298 66.7723Z" fill="#FAFAFA"/>
<path d="M159.406 69.168L157.698 69.0526L157.282 67.6443L158.69 66.6285L159.406 69.168Z" fill="#FAFAFA"/>
<path d="M161.576 68.1291C162.086 68.1291 162.5 67.7156 162.5 67.2056C162.5 66.6956 162.086 66.2821 161.576 66.2821C161.066 66.2821 160.653 66.6956 160.653 67.2056C160.653 67.7156 161.066 68.1291 161.576 68.1291Z" fill="#FAFAFA"/>
<path d="M187.244 199.542L158.745 207.698C157.09 208.171 156.132 209.897 156.606 211.551L156.924 212.661C157.397 214.316 159.123 215.274 160.777 214.8L189.277 206.644C190.932 206.171 191.889 204.445 191.416 202.79L191.098 201.681C190.625 200.026 188.899 199.068 187.244 199.542Z" fill="#FAFAFA"/>
<path d="M187.11 205.449C188.232 205.449 189.142 204.54 189.142 203.418C189.142 202.296 188.232 201.386 187.11 201.386C185.988 201.386 185.079 202.296 185.079 203.418C185.079 204.54 185.988 205.449 187.11 205.449Z" fill="#1E2761"/>
<path d="M133.803 222.303C135.805 222.303 137.428 220.68 137.428 218.678C137.428 216.676 135.805 215.054 133.803 215.054C131.801 215.054 130.178 216.676 130.178 218.678C130.178 220.68 131.801 222.303 133.803 222.303Z" fill="#FAFAFA"/>
<path d="M135.806 217.52L131.412 218.778L131.723 219.865L136.118 218.607L135.806 217.52Z" fill="#1E2761"/>
<path d="M133.687 216.325L132.6 216.637L133.857 221.031L134.945 220.72L133.687 216.325Z" fill="#1E2761"/>
<path d="M146.851 211.398L137.951 213.945L139.888 220.715L148.789 218.167L146.851 211.398Z" fill="#FAFAFA"/>
<path d="M141.029 218.747L147.309 216.947C146.993 216.39 146.532 215.931 145.975 215.617C145.417 215.304 144.785 215.149 144.146 215.169C142.022 215.423 141.029 218.747 141.029 218.747Z" fill="#1E2761"/>
<path d="M141.237 215.977C141.658 215.977 141.999 215.636 141.999 215.215C141.999 214.794 141.658 214.453 141.237 214.453C140.816 214.453 140.475 214.794 140.475 215.215C140.475 215.636 140.816 215.977 141.237 215.977Z" fill="#1E2761"/>
<path d="M150.264 214.43L150.079 213.738L149.502 213.899L149.363 213.368L149.917 213.207L149.709 212.514L149.155 212.676V212.491C149.092 212.282 149.071 212.062 149.094 211.845C149.117 211.627 149.183 211.417 149.288 211.225C149.394 211.034 149.536 210.865 149.708 210.73C149.879 210.594 150.076 210.494 150.287 210.436C150.709 210.315 151.163 210.366 151.548 210.578C151.933 210.79 152.218 211.145 152.341 211.567L152.988 213.876C153.102 214.301 153.045 214.755 152.83 215.139C152.614 215.523 152.256 215.807 151.833 215.931C151.623 215.99 151.402 216.008 151.185 215.982C150.967 215.956 150.757 215.888 150.566 215.781C150.375 215.673 150.207 215.53 150.072 215.357C149.937 215.185 149.837 214.987 149.779 214.776L150.264 214.43Z" fill="#FAFAFA"/>
<path d="M152.988 216.116L151.949 216.416L150.91 216.716C150.709 216.78 150.54 216.918 150.437 217.103C150.334 217.287 150.305 217.504 150.356 217.709L152.157 217.201L153.957 216.693C153.898 216.492 153.765 216.321 153.586 216.214C153.406 216.107 153.192 216.072 152.988 216.116Z" fill="#FAFAFA"/>
<path d="M151.957 215.17L151.269 215.367L151.707 216.899L152.396 216.702L151.957 215.17Z" fill="#FAFAFA"/>
<path d="M200.201 199.678C200.339 200.555 199.67 201.986 197.592 202.702C196.924 202.99 196.175 203.029 195.481 202.813C194.787 202.597 194.193 202.14 193.806 201.525C196.016 201.225 198.171 200.602 200.201 199.678Z" fill="#FAFAFA"/>
<path d="M193.736 200.878C193.921 199.77 194.891 198.223 196.507 198.985C197.476 197.3 199.162 198.246 199.854 199.124C197.909 199.997 195.849 200.588 193.736 200.878Z" fill="#FAFAFA"/>
<path d="M108.361 110.286C102.478 122.06 97.3125 134.18 92.8933 146.578C89.7304 155.351 93.5859 174.698 95.7099 183.84C97.8339 192.983 103.098 218.309 104.506 222.534C105.914 226.759 115.749 240.818 141.768 228.167L134.034 223.55C134.034 223.55 135.096 209.12 129.116 199.285C123.137 189.45 116.742 179.223 116.742 179.223C116.742 179.223 114.433 160.592 112.933 156.136C111.432 151.68 113.856 151.219 116.742 139.606C119.628 127.993 115.749 112.733 108.361 110.286Z" fill="#EAA88E"/>
<path d="M160.052 99.0194C164.993 103.198 169.91 101.143 175.544 94.1019C181.177 87.0604 181.154 79.3264 179.053 75.8172C177.388 73.4459 175.07 71.6093 172.381 70.5303C169.12 73.6675 166.28 77.2139 163.931 81.081C160.422 87.0604 155.481 95.1639 160.052 99.0194Z" fill="#EAA88E"/>
<path d="M160.283 120.236C160.049 120.984 160.061 121.787 160.319 122.528C160.577 123.268 161.066 123.905 161.715 124.345C166.794 127.739 173.951 124.9 179.492 119.359C185.817 113.033 187.503 111.324 186.787 105.345C186.071 99.3655 182.585 96.572 177.968 99.7349C173.004 103.712 168.442 108.166 164.347 113.033C162.5 115.121 161.115 117.576 160.283 120.236Z" fill="#EAA88E"/>
<path d="M176.329 161.354C178.638 168.049 185.91 164.909 190.296 163.27C194.683 161.631 202.186 159.184 201.147 152.05C200.108 144.916 191.912 148.356 187.664 149.972C183.417 151.588 174.02 154.335 176.329 161.354Z" fill="#EAA88E"/>
<path d="M167.186 138.798C168.687 144.754 176.098 145.401 183.578 142.884C191.058 140.368 198.469 137.551 196.899 129.979C195.329 122.406 187.364 123.053 179.676 127.278C171.989 131.502 165.201 130.925 167.186 138.798Z" fill="#EAA88E"/>
<path d="M142.322 14.7986C142.322 10.8738 140.763 7.1097 137.988 4.33442C135.212 1.55914 131.448 0 127.523 0H89.5917C85.6669 0 81.9028 1.55914 79.1275 4.33442C76.3522 7.1097 74.7931 10.8738 74.7931 14.7986C74.7931 18.7235 76.3522 22.4876 79.1275 25.2628C81.9028 28.0381 85.6669 29.5973 89.5917 29.5973H120.713L136.412 44.7884C136.47 44.8367 136.541 44.866 136.616 44.8724C136.692 44.8788 136.767 44.862 136.833 44.8243C136.898 44.7866 136.95 44.7297 136.982 44.6614C137.014 44.593 137.025 44.5165 137.012 44.4421L133.387 28.4198C136.048 27.275 138.313 25.3735 139.901 22.9517C141.49 20.53 142.332 17.6948 142.322 14.7986Z" fill="#1E2761"/>
<path d="M112.425 12.3283H86.4289C85.8166 12.3283 85.2293 12.085 84.7964 11.6521C84.3634 11.2191 84.1202 10.6319 84.1202 10.0196C84.1202 9.40727 84.3634 8.82005 84.7964 8.38709C85.2293 7.95413 85.8166 7.71089 86.4289 7.71089H112.425C113.037 7.71089 113.624 7.95413 114.057 8.38709C114.49 8.82005 114.733 9.40727 114.733 10.0196C114.733 10.6319 114.49 11.2191 114.057 11.6521C113.624 12.085 113.037 12.3283 112.425 12.3283Z" fill="#F1F7FF"/>
<path d="M131.448 21.9094H86.4286C86.0184 21.9094 85.625 21.7465 85.3349 21.4564C85.0448 21.1663 84.8818 20.7729 84.8818 20.3626C84.8818 19.9524 85.0448 19.5589 85.3349 19.2689C85.625 18.9788 86.0184 18.8158 86.4286 18.8158H131.448C131.858 18.8158 132.252 18.9788 132.542 19.2689C132.832 19.5589 132.995 19.9524 132.995 20.3626C132.995 20.7729 132.832 21.1663 132.542 21.4564C132.252 21.7465 131.858 21.9094 131.448 21.9094Z" fill="#F1F7FF"/>
<path d="M265.42 14.3368H211.028C206.179 14.3486 201.48 16.0211 197.714 19.0757C193.948 22.1303 191.342 26.3827 190.33 31.1249C189.318 35.8671 189.961 40.8129 192.152 45.1389C194.342 49.4648 197.949 52.9098 202.37 54.9003L197.337 77.3176C197.312 77.3948 197.315 77.4785 197.345 77.5539C197.375 77.6294 197.431 77.6918 197.502 77.7303C197.574 77.7689 197.657 77.781 197.736 77.7646C197.816 77.7483 197.887 77.7044 197.938 77.6408L219.339 56.8627H265.513C271.14 56.8627 276.536 54.6274 280.515 50.6484C284.494 46.6695 286.73 41.273 286.73 35.6459C286.73 30.0189 284.494 24.6223 280.515 20.6434C276.536 16.6645 271.14 14.4292 265.513 14.4292L265.42 14.3368Z" fill="#1E2761"/>
<path d="M266.367 43.6341C270.83 43.6341 274.448 40.0164 274.448 35.5537C274.448 31.091 270.83 27.4733 266.367 27.4733C261.905 27.4733 258.287 31.091 258.287 35.5537C258.287 40.0164 261.905 43.6341 266.367 43.6341Z" fill="#434C88"/>
<path d="M210.081 43.6341C214.544 43.6341 218.162 40.0164 218.162 35.5537C218.162 31.091 214.544 27.4733 210.081 27.4733C205.619 27.4733 202.001 31.091 202.001 35.5537C202.001 40.0164 205.619 43.6341 210.081 43.6341Z" fill="#F1F7FF"/>
<path d="M238.225 43.6341C242.687 43.6341 246.305 40.0164 246.305 35.5537C246.305 31.091 242.687 27.4733 238.225 27.4733C233.762 27.4733 230.144 31.091 230.144 35.5537C230.144 40.0164 233.762 43.6341 238.225 43.6341Z" fill="#434C88"/>
<path d="M59.5555 90.6387C62.5128 88.7939 64.72 85.9601 65.7847 82.6411C66.8494 79.3222 66.7027 75.7333 65.3706 72.5123C64.0385 69.2914 61.6073 66.6473 58.5093 65.05C55.4113 63.4527 51.8473 63.0058 48.4508 63.7888L11.5119 72.1C7.69423 72.9603 4.37464 75.3019 2.28344 78.6097C0.192237 81.9176 -0.499285 85.9206 0.360997 89.7383C1.22128 93.556 3.56289 96.8756 6.87072 98.9668C10.1785 101.058 14.1816 101.75 17.9993 100.889L48.5201 93.9632L64.6808 103.775C64.7924 103.846 64.9243 103.878 65.0561 103.867C65.1879 103.855 65.3122 103.8 65.4096 103.711C65.507 103.621 65.5721 103.502 65.5948 103.372C65.6175 103.242 65.5965 103.107 65.535 102.99L59.5555 90.6387Z" fill="#1E2761"/>
<path d="M52.3293 83.6665C55.4404 83.6665 57.9625 81.1444 57.9625 78.0333C57.9625 74.9222 55.4404 72.4001 52.3293 72.4001C49.2182 72.4001 46.6961 74.9222 46.6961 78.0333C46.6961 81.1444 49.2182 83.6665 52.3293 83.6665Z" fill="#434C88"/>
<path d="M33.2596 87.9607C36.3708 87.9607 38.8928 85.4386 38.8928 82.3275C38.8928 79.2164 36.3708 76.6943 33.2596 76.6943C30.1485 76.6943 27.6265 79.2164 27.6265 82.3275C27.6265 85.4386 30.1485 87.9607 33.2596 87.9607Z" fill="#434C88"/>
<path d="M14.1674 92.2779C17.2785 92.2779 19.8005 89.7558 19.8005 86.6447C19.8005 83.5336 17.2785 81.0115 14.1674 81.0115C11.0562 81.0115 8.53418 83.5336 8.53418 86.6447C8.53418 89.7558 11.0562 92.2779 14.1674 92.2779Z" fill="#F1F7FF"/>
</svg>
