<svg width="274" height="252" viewBox="0 0 274 252" fill="none" xmlns="http://www.w3.org/2000/svg">
<path d="M41.6323 84.6829H29.4919C27.3222 84.6829 25.5634 86.4418 25.5634 88.6115V128.743C25.5634 130.913 27.3222 132.672 29.4919 132.672H41.6323C43.802 132.672 45.5609 130.913 45.5609 128.743V88.6115C45.5609 86.4418 43.802 84.6829 41.6323 84.6829Z" fill="#E2EAF2"/>
<path d="M0 141.347L0 153.651C0 155.776 1.72223 157.498 3.84673 157.498H41.7139C43.8384 157.498 45.5606 155.776 45.5606 153.651V141.347C45.5606 139.223 43.8384 137.501 41.7139 137.501H3.84673C1.72223 137.501 0 139.223 0 141.347Z" fill="#E2EAF2"/>
<path d="M15.8236 166.174L15.8236 178.478C15.8236 180.602 17.5458 182.325 19.6703 182.325H88.557C90.6815 182.325 92.4037 180.602 92.4037 178.478V166.174C92.4037 164.049 90.6815 162.327 88.557 162.327H19.6703C17.5458 162.327 15.8236 164.049 15.8236 166.174Z" fill="#E2EAF2"/>
<path d="M16.069 105.199H3.92859C1.75889 105.199 0 106.958 0 109.127V128.743C0 130.913 1.75889 132.672 3.92859 132.672H16.069C18.2387 132.672 19.9976 130.913 19.9976 128.743V109.127C19.9976 106.958 18.2387 105.199 16.069 105.199Z" fill="#E2EAF2"/>
<path d="M79.5265 187.181H67.3861C65.2164 187.181 63.4575 188.94 63.4575 191.109V210.725C63.4575 212.895 65.2164 214.654 67.3861 214.654H79.5265C81.6962 214.654 83.4551 212.895 83.4551 210.725V191.109C83.4551 188.94 81.6962 187.181 79.5265 187.181Z" fill="#E2EAF2"/>
<path d="M271.181 251.675H61.9843C61.4634 251.675 60.9637 251.468 60.5953 251.1C60.227 250.731 60.02 250.232 60.02 249.711C60.02 249.19 60.227 248.69 60.5953 248.322C60.9637 247.953 61.4634 247.746 61.9843 247.746H271.181C271.702 247.746 272.202 247.953 272.57 248.322C272.939 248.69 273.146 249.19 273.146 249.711C273.146 250.232 272.939 250.731 272.57 251.1C272.202 251.468 271.702 251.675 271.181 251.675Z" fill="#E2EAF2"/>
<path d="M53.6358 17.9787C53.6145 18.5767 53.4166 19.1549 53.067 19.6404C52.7174 20.126 52.2318 20.4971 51.6715 20.7069C48.6378 21.8597 45.8828 23.6422 43.5881 25.937C41.2933 28.2318 39.5107 30.9868 38.358 34.0204C38.1421 34.5768 37.7695 35.0585 37.2852 35.4072C36.8009 35.7558 36.2258 35.9565 35.6298 35.9847V35.9847C35.0328 35.9599 34.4562 35.7606 33.9713 35.4115C33.4864 35.0624 33.1145 34.5787 32.9016 34.0204C31.74 30.9742 29.9418 28.2109 27.6271 25.915C25.3125 23.6192 22.5345 21.8436 19.4789 20.7069C18.9186 20.4971 18.4331 20.126 18.0835 19.6404C17.7339 19.1549 17.5359 18.5767 17.5146 17.9787V17.9787C17.5359 17.3808 17.7339 16.8026 18.0835 16.317C18.4331 15.8315 18.9186 15.4604 19.4789 15.2505C22.5058 14.099 25.2546 12.3198 27.5445 10.0298C29.8344 7.73989 31.6137 4.99113 32.7652 1.9643C32.9781 1.406 33.35 0.922365 33.8349 0.573239C34.3198 0.224112 34.8964 0.0248097 35.4934 0V0C36.0895 0.0282462 36.6645 0.228882 37.1488 0.577558C37.633 0.926233 38.0057 1.40796 38.2216 1.9643C39.394 5.00551 41.1994 7.76279 43.5182 10.0534C45.837 12.3439 48.6162 14.1155 51.6715 15.2505C52.2318 15.4604 52.7174 15.8315 53.067 16.317C53.4166 16.8026 53.6145 17.3808 53.6358 17.9787V17.9787Z" fill="#434C88"/>
<path d="M66.3496 65.0127C66.3434 65.4736 66.1999 65.9223 65.9375 66.3013C65.6751 66.6803 65.3057 66.9726 64.8764 67.1407C62.5896 68.0116 60.5129 69.3563 58.7826 71.0866C57.0524 72.8169 55.7076 74.8936 54.8367 77.1804C54.6686 77.6096 54.3764 77.9791 53.9974 78.2415C53.6183 78.5039 53.1697 78.6474 52.7087 78.6536V78.6536C52.2469 78.6511 51.7966 78.509 51.4169 78.2461C51.0371 77.9833 50.7457 77.6118 50.5807 77.1804C49.7208 74.8897 48.3868 72.8065 46.6661 71.067C44.9454 69.3275 42.8768 67.9709 40.5956 67.0861C40.1591 66.9256 39.7818 66.636 39.5138 66.2559C39.2457 65.8758 39.0997 65.4232 39.0951 64.9581V64.9581C39.1052 64.4977 39.2537 64.0511 39.5214 63.6764C39.789 63.3017 40.1634 63.0163 40.5956 62.8574C42.8626 61.9861 44.9221 60.65 46.6418 58.935C48.3615 57.22 49.7032 55.1641 50.5807 52.8996C50.7396 52.4673 51.025 52.093 51.3997 51.8254C51.7744 51.5577 52.2211 51.4091 52.6814 51.399V51.399C53.1465 51.4037 53.5991 51.5497 53.9792 51.8177C54.3593 52.0857 54.6489 52.4631 54.8094 52.8996C55.6851 55.1804 57.0318 57.251 58.7617 58.9763C60.4916 60.7015 62.5659 62.0426 64.8491 62.912C65.2814 63.0708 65.6557 63.3562 65.9233 63.7309C66.191 64.1057 66.3395 64.5523 66.3496 65.0127V65.0127Z" fill="#434C88"/>
<path d="M87.1931 35.1118C87.1869 35.5727 87.0434 36.0214 86.781 36.4004C86.5186 36.7795 86.1492 37.0717 85.7199 37.2398C83.4128 38.1203 81.3168 39.4766 79.5682 41.2204C77.8197 42.9642 76.4578 45.0565 75.5711 47.3613C75.4106 47.7978 75.121 48.1751 74.7409 48.4432C74.3608 48.7112 73.9082 48.8572 73.4431 48.8618C72.978 48.8572 72.5254 48.7112 72.1453 48.4432C71.7652 48.1751 71.4757 47.7978 71.3151 47.3613C70.4404 45.0584 69.089 42.9663 67.3494 41.222C65.6098 39.4778 63.5214 38.1207 61.2208 37.2398C60.7843 37.0792 60.407 36.7897 60.139 36.4096C59.871 36.0295 59.725 35.5768 59.7203 35.1118C59.725 34.6467 59.871 34.1941 60.139 33.814C60.407 33.4339 60.7843 33.1443 61.2208 32.9838C63.5231 32.1059 65.6132 30.7499 67.3531 29.0052C69.0931 27.2606 70.4434 25.1669 71.3151 22.8622C71.4832 22.433 71.7754 22.0636 72.1545 21.8011C72.5335 21.5387 72.9821 21.3953 73.4431 21.389C73.9041 21.3953 74.3527 21.5387 74.7317 21.8011C75.1108 22.0636 75.403 22.433 75.5711 22.8622C76.4533 25.1696 77.8136 27.2643 79.5627 29.0087C81.3118 30.7531 83.4102 32.1078 85.7199 32.9838C86.1492 33.1519 86.5186 33.4441 86.781 33.8231C87.0434 34.2022 87.1869 34.6508 87.1931 35.1118V35.1118Z" fill="#434C88"/>
<path d="M200.631 49.2165H129.098C109.806 49.2237 91.3056 56.8927 77.6662 70.5372C64.0268 84.1817 56.3647 102.685 56.3647 121.977V121.977C56.372 141.265 64.0372 159.761 77.6758 173.399C91.3144 187.038 109.81 194.703 129.098 194.71H189.5C190.4 196.538 191.383 198.339 192.419 200.03C195.556 205.092 199.619 209.516 204.396 213.071C208.756 216.361 213.77 218.677 219.101 219.864C221.505 220.4 223.952 220.729 226.412 220.846C228.786 220.846 231.132 220.683 233.342 220.574C233.483 220.569 233.621 220.535 233.748 220.474C233.875 220.413 233.987 220.326 234.079 220.219C234.267 220.025 234.372 219.766 234.372 219.496C234.372 219.226 234.267 218.967 234.079 218.773V218.773C232.387 217.327 230.696 216.045 229.277 214.572C227.891 213.141 226.648 211.579 225.567 209.906C223.587 207.006 222.359 203.659 221.993 200.167C221.676 197.24 221.954 194.28 222.811 191.464C237.564 186.808 250.45 177.572 259.599 165.097C268.748 152.622 273.684 137.557 273.692 122.086V122.086C273.706 112.497 271.825 102.999 268.156 94.1389C264.487 85.279 259.103 77.2316 252.313 70.4597C245.524 63.6877 237.462 58.3247 228.593 54.679C219.723 51.0333 210.221 49.1769 200.631 49.2165Z" fill="#1E2761"/>
<path d="M219.728 113.465C219.724 121.101 216.704 128.426 211.325 133.845C210.461 134.669 209.55 135.444 208.597 136.164L164.918 170.757L121.076 136.218C120.149 135.482 119.249 134.69 118.348 133.899C113.12 128.692 110.086 121.68 109.867 114.304C109.649 106.928 112.264 99.749 117.174 94.2412C122.085 88.7334 128.918 85.3155 136.27 84.6896C143.623 84.0637 150.936 86.2774 156.707 90.8758L164.891 97.2598L173.076 90.8758C177.327 87.5488 182.427 85.4809 187.795 84.9068C193.163 84.3328 198.584 85.2757 203.443 87.6285C208.302 89.9813 212.404 93.6495 215.282 98.2166C218.161 102.784 219.701 108.067 219.728 113.465V113.465Z" fill="#FAFAFA"/>
</svg>
